<svg xmlns="http://www.w3.org/2000/svg" viewBox="0 0 64 64" width="64" height="64">
  <defs>
    <linearGradient id="antigravityGradient" x1="0%" y1="0%" x2="100%" y2="100%">
      <stop offset="0%" style="stop-color:#8b5cf6;stop-opacity:1" />
      <stop offset="100%" style="stop-color:#7c3aed;stop-opacity:1" />
    </linearGradient>
  </defs>

  <!-- Background rounded square -->
  <rect x="4" y="4" width="56" height="56" rx="12" fill="url(#antigravityGradient)"/>

  <!-- Antigravity logo (rocket/levitation) -->
  <g transform="translate(32, 32)">
    <!-- Rocket body -->
    <ellipse cx="0" cy="0" rx="8" ry="14" fill="white"/>

    <!-- Window -->
    <circle cx="0" cy="-4" r="4" fill="#8b5cf6"/>

    <!-- Fins -->
    <path d="M-8 4 L-14 14 L-8 10 Z" fill="white"/>
    <path d="M8 4 L14 14 L8 10 Z" fill="white"/>

    <!-- Thruster glow -->
    <ellipse cx="0" cy="16" rx="4" ry="6" fill="white" opacity="0.6"/>
    <ellipse cx="0" cy="18" rx="2" ry="3" fill="white" opacity="0.9"/>

    <!-- Levitation waves -->
    <path d="M-18 24 Q-9 22, 0 24 Q9 22, 18 24" fill="none" stroke="white" stroke-width="2" opacity="0.5"/>
    <path d="M-16 28 Q-8 26, 0 28 Q8 26, 16 28" fill="none" stroke="white" stroke-width="1.5" opacity="0.3"/>
  </g>
</svg>