<svg xmlns="http://www.w3.org/2000/svg" viewBox="0 0 512 512" width="512" height="512">
  <defs>
    <linearGradient id="gradient" x1="0%" y1="0%" x2="100%" y2="100%">
      <stop offset="0%" style="stop-color:#667eea;stop-opacity:1" />
      <stop offset="100%" style="stop-color:#764ba2;stop-opacity:1" />
    </linearGradient>
  </defs>

  <!-- Background circle -->
  <circle cx="256" cy="256" r="240" fill="url(#gradient)" />

  <!-- AI brain icon -->
  <g transform="translate(256, 256) scale(0.7)">
    <!-- Brain outline -->
    <path d="M-100 -50
             C-100 -100, -50 -120, 0 -120
             C50 -120, 100 -100, 100 -50
             C100 0, 80 50, 50 80
             L50 120
             L-50 120
             L-50 80
             C-80 50, -100 0, -100 -50 Z"
          fill="none" stroke="white" stroke-width="12" stroke-linecap="round"/>

    <!-- Neural network nodes -->
    <circle cx="-50" cy="-30" r="15" fill="white" opacity="0.9"/>
    <circle cx="50" cy="-30" r="15" fill="white" opacity="0.9"/>
    <circle cx="0" cy="30" r="15" fill="white" opacity="0.9"/>

    <!-- Neural connections -->
    <path d="M-50 -30 L0 30 L50 -30" fill="none" stroke="white" stroke-width="8" stroke-linecap="round" opacity="0.7"/>
    <path d="M-50 -30 L50 -30" fill="none" stroke="white" stroke-width="8" stroke-linecap="round" opacity="0.7"/>

    <!-- Usage gauge arc (warning: 35% full) -->
    <path d="M-80 50 A 80 80 0 1 1 70 45"
          fill="none" stroke="#fbbf24" stroke-width="16" stroke-linecap="round"/>
    <path d="M70 45 A 80 80 0 0 1 -80 50"
          fill="none" stroke="#334155" stroke-width="16" stroke-linecap="round" opacity="0.3"/>
  </g>
</svg>